STARTFONT 2.1
FONT Schoolbell-UI-16
SIZE 16 96 96
FONTBOUNDINGBOX 18 19 -4 -6
STARTPROPERTIES 5
FONT_ASCENT 16
FONT_DESCENT 6
DEFAULT_CHAR 32
CHARSET_REGISTRY "ISO10646"
CHARSET_ENCODING "1"
ENDPROPERTIES
CHARS 75
STARTCHAR A
ENCODING 65
SWIDTH 9000 0
DWIDTH 9 0
BBX 9 14 0 -1
BITMAP
0800
0800
1800
1C00
1400
3400
3400
7E00
4200
4200
4300
C100
0100
0000
ENDCHAR
STARTCHAR B
ENCODING 66
SWIDTH 8000 0
DWIDTH 8 0
BBX 8 14 0 -1
BITMAP
78
7E
63
63
66
7C
78
44
46
42
46
7C
00
00
ENDCHAR
STARTCHAR C
ENCODING 67
SWIDTH 8000 0
DWIDTH 8 0
BBX 8 12 0 0
BITMAP
3E
60
40
40
C0
80
C0
40
40
33
1E
00
ENDCHAR
STARTCHAR D
ENCODING 68
SWIDTH 9000 0
DWIDTH 9 0
BBX 9 13 0 -1
BITMAP
2000
7800
4400
4200
4200
4300
4100
4100
4100
4300
4600
7C00
0000
ENDCHAR
STARTCHAR E
ENCODING 69
SWIDTH 8000 0
DWIDTH 8 0
BBX 8 12 0 -1
BITMAP
7E
C0
40
40
7E
40
40
40
40
6E
7A
00
ENDCHAR
STARTCHAR F
ENCODING 70
SWIDTH 7000 0
DWIDTH 7 0
BBX 9 13 0 -1
BITMAP
0000
7F00
4000
4000
4000
4000
7E00
4400
4000
4000
4000
4000
4000
ENDCHAR
STARTCHAR G
ENCODING 71
SWIDTH 9000 0
DWIDTH 9 0
BBX 9 12 0 -1
BITMAP
0700
1C00
3000
6000
4000
8000
8F80
8180
C380
4280
3D80
1800
ENDCHAR
STARTCHAR H
ENCODING 72
SWIDTH 8000 0
DWIDTH 8 0
BBX 8 13 0 -1
BITMAP
02
C3
43
43
43
43
42
7E
42
42
42
42
00
ENDCHAR
STARTCHAR I
ENCODING 73
SWIDTH 7000 0
DWIDTH 7 0
BBX 9 13 -1 -1
BITMAP
0200
FE00
1000
1000
1000
1000
1000
1000
1000
1000
1000
FE00
0000
ENDCHAR
STARTCHAR J
ENCODING 74
SWIDTH 7000 0
DWIDTH 7 0
BBX 10 12 -1 -1
BITMAP
7F00
7F80
0C00
0C00
0C00
0400
0400
0400
8400
C400
7C00
1000
ENDCHAR
STARTCHAR K
ENCODING 75
SWIDTH 8000 0
DWIDTH 8 0
BBX 9 13 0 -1
BITMAP
C100
C300
4200
4600
4C00
7800
7000
4800
4C00
4600
4200
0000
0000
ENDCHAR
STARTCHAR L
ENCODING 76
SWIDTH 7000 0
DWIDTH 7 0
BBX 8 13 0 -1
BITMAP
20
20
60
60
60
40
40
40
40
40
40
7F
00
ENDCHAR
STARTCHAR M
ENCODING 77
SWIDTH 10000 0
DWIDTH 10 0
BBX 10 14 0 -1
BITMAP
0180
6180
6180
6180
6380
7280
5280
5680
5C80
4C80
4880
4080
0080
0000
ENDCHAR
STARTCHAR N
ENCODING 78
SWIDTH 8000 0
DWIDTH 8 0
BBX 8 13 0 0
BITMAP
03
03
C2
62
72
52
4A
4A
4E
46
46
42
00
ENDCHAR
STARTCHAR O
ENCODING 79
SWIDTH 9000 0
DWIDTH 9 0
BBX 9 11 0 0
BITMAP
3000
7800
4C00
C200
8100
8100
8100
C100
4200
3600
1800
ENDCHAR
STARTCHAR P
ENCODING 80
SWIDTH 6000 0
DWIDTH 6 0
BBX 7 14 0 -1
BITMAP
70
5C
46
44
44
48
58
70
40
60
20
20
20
00
ENDCHAR
STARTCHAR Q
ENCODING 81
SWIDTH 9000 0
DWIDTH 9 0
BBX 9 13 0 -1
BITMAP
3800
6600
4200
4100
C100
C100
C500
4700
4600
3700
1D00
1000
0000
ENDCHAR
STARTCHAR R
ENCODING 82
SWIDTH 7000 0
DWIDTH 7 0
BBX 8 14 0 -1
BITMAP
38
6C
46
42
46
4C
D8
70
60
58
4C
46
40
00
ENDCHAR
STARTCHAR S
ENCODING 83
SWIDTH 7000 0
DWIDTH 7 0
BBX 9 13 -1 -1
BITMAP
1E00
7E00
8000
8000
C000
6000
3000
0800
0C00
0400
0800
3000
0000
ENDCHAR
STARTCHAR T
ENCODING 84
SWIDTH 6000 0
DWIDTH 6 0
BBX 9 12 -1 -1
BITMAP
FE00
1600
1000
1000
1000
1000
1000
1000
1000
1000
1800
0000
ENDCHAR
STARTCHAR U
ENCODING 85
SWIDTH 8000 0
DWIDTH 8 0
BBX 8 13 0 -1
BITMAP
82
C2
C2
C2
C2
42
42
46
44
4C
38
00
00
ENDCHAR
STARTCHAR V
ENCODING 86
SWIDTH 7000 0
DWIDTH 7 0
BBX 8 13 0 -1
BITMAP
83
82
C2
42
42
46
44
64
2C
28
38
10
00
ENDCHAR
STARTCHAR W
ENCODING 87
SWIDTH 13000 0
DWIDTH 13 0
BBX 15 11 -1 0
BITMAP
8308
8308
C308
4308
4718
4598
6C90
28B0
38E0
3060
2000
ENDCHAR
STARTCHAR X
ENCODING 88
SWIDTH 8000 0
DWIDTH 8 0
BBX 9 14 0 -1
BITMAP
0100
C300
4200
2600
2400
1C00
1800
1800
3C00
2400
4600
4200
0000
0000
ENDCHAR
STARTCHAR Y
ENCODING 89
SWIDTH 6000 0
DWIDTH 6 0
BBX 10 14 -2 -1
BITMAP
8180
C100
6300
2200
3400
1C00
0800
0800
0800
0800
0800
0800
0000
0000
ENDCHAR
STARTCHAR Z
ENCODING 90
SWIDTH 8000 0
DWIDTH 8 0
BBX 9 12 0 0
BITMAP
FE00
0300
0200
0400
0C00
1800
3000
2000
6300
DE00
7000
0000
ENDCHAR
STARTCHAR a
ENCODING 97
SWIDTH 8000 0
DWIDTH 8 0
BBX 8 8 0 -1
BITMAP
3A
7E
42
42
C2
46
3E
00
ENDCHAR
STARTCHAR b
ENCODING 98
SWIDTH 8000 0
DWIDTH 8 0
BBX 8 13 0 0
BITMAP
40
40
40
40
40
7E
62
43
43
62
76
1C
00
ENDCHAR
STARTCHAR c
ENCODING 99
SWIDTH 6000 0
DWIDTH 6 0
BBX 6 8 0 0
BITMAP
3C
60
40
C0
40
78
18
00
ENDCHAR
STARTCHAR d
ENCODING 100
SWIDTH 7000 0
DWIDTH 7 0
BBX 7 15 0 -2
BITMAP
04
04
04
04
04
0C
3C
64
C4
C4
44
7C
04
00
00
ENDCHAR
STARTCHAR e
ENCODING 101
SWIDTH 7000 0
DWIDTH 7 0
BBX 7 8 0 0
BITMAP
3C
44
FC
48
46
7C
18
00
ENDCHAR
STARTCHAR f
ENCODING 102
SWIDTH 5000 0
DWIDTH 5 0
BBX 9 14 -1 -1
BITMAP
0600
0B00
1000
3000
3000
3000
FC00
1000
1000
1000
1000
1800
1800
0000
ENDCHAR
STARTCHAR g
ENCODING 103
SWIDTH 7000 0
DWIDTH 7 0
BBX 8 15 -1 -6
BITMAP
10
38
68
48
4C
C4
44
7C
04
04
04
0C
D8
70
00
ENDCHAR
STARTCHAR h
ENCODING 104
SWIDTH 8000 0
DWIDTH 8 0
BBX 8 14 0 -1
BITMAP
20
20
20
60
60
40
7C
66
42
42
42
42
C2
00
ENDCHAR
STARTCHAR i
ENCODING 105
SWIDTH 4000 0
DWIDTH 4 0
BBX 4 11 0 -1
BITMAP
60
40
00
60
60
60
40
40
40
40
00
ENDCHAR
STARTCHAR j
ENCODING 106
SWIDTH 4000 0
DWIDTH 4 0
BBX 8 16 -4 -6
BITMAP
04
06
00
00
04
04
04
04
06
02
02
02
02
42
E6
3C
ENDCHAR
STARTCHAR k
ENCODING 107
SWIDTH 7000 0
DWIDTH 7 0
BBX 8 13 0 -1
BITMAP
40
40
40
40
40
46
4C
78
60
70
4C
46
42
ENDCHAR
STARTCHAR l
ENCODING 108
SWIDTH 3000 0
DWIDTH 3 0
BBX 3 14 0 -1
BITMAP
40
40
40
40
40
40
40
40
40
40
40
40
40
00
ENDCHAR
STARTCHAR m
ENCODING 109
SWIDTH 12000 0
DWIDTH 12 0
BBX 12 8 0 -1
BITMAP
1980
6FC0
4640
4660
4220
4220
4020
0000
ENDCHAR
STARTCHAR n
ENCODING 110
SWIDTH 6000 0
DWIDTH 6 0
BBX 7 9 0 -2
BITMAP
40
78
48
4C
4C
4C
4C
4C
00
ENDCHAR
STARTCHAR o
ENCODING 111
SWIDTH 9000 0
DWIDTH 9 0
BBX 9 8 0 0
BITMAP
3F00
6100
C100
C300
4E00
7800
0000
0000
ENDCHAR
STARTCHAR p
ENCODING 112
SWIDTH 7000 0
DWIDTH 7 0
BBX 7 14 0 -6
BITMAP
08
7C
46
42
46
4C
78
40
40
40
40
40
40
00
ENDCHAR
STARTCHAR q
ENCODING 113
SWIDTH 7000 0
DWIDTH 7 0
BBX 9 14 0 -5
BITMAP
0400
3C00
4400
C400
C400
6400
3C00
0400
0400
0400
0600
0380
0000
0000
ENDCHAR
STARTCHAR r
ENCODING 114
SWIDTH 7000 0
DWIDTH 7 0
BBX 7 8 0 -1
BITMAP
4C
7E
40
40
40
40
60
00
ENDCHAR
STARTCHAR s
ENCODING 115
SWIDTH 8000 0
DWIDTH 8 0
BBX 8 9 0 -1
BITMAP
3C
64
40
7C
02
C2
7C
00
00
ENDCHAR
STARTCHAR t
ENCODING 116
SWIDTH 6000 0
DWIDTH 6 0
BBX 8 15 -1 -2
BITMAP
10
10
10
10
10
10
F0
3C
10
10
10
10
30
00
00
ENDCHAR
STARTCHAR u
ENCODING 117
SWIDTH 9000 0
DWIDTH 9 0
BBX 9 8 0 -1
BITMAP
4200
4200
4300
4300
6500
3900
0100
0000
ENDCHAR
STARTCHAR v
ENCODING 118
SWIDTH 6000 0
DWIDTH 6 0
BBX 6 9 0 -1
BITMAP
00
C4
4C
48
68
38
30
30
00
ENDCHAR
STARTCHAR w
ENCODING 119
SWIDTH 10000 0
DWIDTH 10 0
BBX 11 8 0 -1
BITMAP
4440
C440
4CC0
4E80
7B80
3300
3300
0200
ENDCHAR
STARTCHAR x
ENCODING 120
SWIDTH 7000 0
DWIDTH 7 0
BBX 8 9 0 -1
BITMAP
04
4C
28
38
18
2C
44
82
00
ENDCHAR
STARTCHAR y
ENCODING 121
SWIDTH 7000 0
DWIDTH 7 0
BBX 7 13 0 -5
BITMAP
82
44
44
2C
28
18
10
30
20
40
C0
80
00
ENDCHAR
STARTCHAR z
ENCODING 122
SWIDTH 7000 0
DWIDTH 7 0
BBX 7 7 0 0
BITMAP
FC
3E
0C
18
20
7E
00
ENDCHAR
STARTCHAR 0
ENCODING 48
SWIDTH 7000 0
DWIDTH 7 0
BBX 7 12 0 0
BITMAP
38
64
42
42
C2
42
46
44
64
3C
10
00
ENDCHAR
STARTCHAR 1
ENCODING 49
SWIDTH 4000 0
DWIDTH 4 0
BBX 4 12 0 0
BITMAP
20
20
20
20
20
20
20
20
60
60
40
40
ENDCHAR
STARTCHAR 2
ENCODING 50
SWIDTH 8000 0
DWIDTH 8 0
BBX 8 12 0 0
BITMAP
7C
46
02
02
06
04
08
10
60
FF
3F
00
ENDCHAR
STARTCHAR 3
ENCODING 51
SWIDTH 8000 0
DWIDTH 8 0
BBX 8 13 0 -1
BITMAP
00
7C
02
02
0C
38
3C
06
01
03
46
FC
00
ENDCHAR
STARTCHAR 4
ENCODING 52
SWIDTH 8000 0
DWIDTH 8 0
BBX 9 13 0 -1
BITMAP
4600
4600
4200
4200
4200
7F00
0300
0200
0200
0200
0200
0000
0000
ENDCHAR
STARTCHAR 5
ENCODING 53
SWIDTH 9000 0
DWIDTH 9 0
BBX 9 12 0 0
BITMAP
3E00
6000
4000
C000
7800
1E00
0300
0100
0300
3E00
3800
0000
ENDCHAR
STARTCHAR 6
ENCODING 54
SWIDTH 8000 0
DWIDTH 8 0
BBX 8 13 0 -1
BITMAP
08
10
30
20
20
60
7C
66
43
43
4E
78
00
ENDCHAR
STARTCHAR 7
ENCODING 55
SWIDTH 8000 0
DWIDTH 8 0
BBX 8 11 0 0
BITMAP
FE
02
06
04
04
0C
08
08
18
10
10
ENDCHAR
STARTCHAR 8
ENCODING 56
SWIDTH 8000 0
DWIDTH 8 0
BBX 8 14 0 -1
BITMAP
02
3E
44
6C
38
18
3C
66
42
42
42
7E
18
00
ENDCHAR
STARTCHAR 9
ENCODING 57
SWIDTH 8000 0
DWIDTH 8 0
BBX 8 13 0 -1
BITMAP
0C
1E
26
46
44
C4
7C
1C
04
04
04
04
00
ENDCHAR
STARTCHAR space
ENCODING 32
SWIDTH 5000 0
DWIDTH 5 0
BBX 0 0 0 0
BITMAP
ENDCHAR
STARTCHAR comma
ENCODING 44
SWIDTH 2000 0
DWIDTH 2 0
BBX 4 5 -1 -3
BITMAP
00
20
60
C0
00
ENDCHAR
STARTCHAR period
ENCODING 46
SWIDTH 2000 0
DWIDTH 2 0
BBX 2 3 0 -1
BITMAP
C0
00
00
ENDCHAR
STARTCHAR question
ENCODING 63
SWIDTH 7000 0
DWIDTH 7 0
BBX 7 13 0 -1
BITMAP
E0
FC
06
02
1E
38
60
20
20
20
00
30
00
ENDCHAR
STARTCHAR exclam
ENCODING 33
SWIDTH 3000 0
DWIDTH 3 0
BBX 3 13 0 -1
BITMAP
40
40
40
60
60
40
40
40
40
40
00
C0
00
ENDCHAR
STARTCHAR apostrophe
ENCODING 39
SWIDTH 3000 0
DWIDTH 3 0
BBX 3 12 0 0
BITMAP
40
40
40
40
C0
00
00
00
00
00
00
00
ENDCHAR
STARTCHAR quotedbl
ENCODING 34
SWIDTH 5000 0
DWIDTH 5 0
BBX 5 12 0 0
BITMAP
50
50
50
50
D0
00
00
00
00
00
00
00
ENDCHAR
STARTCHAR hyphen
ENCODING 45
SWIDTH 7000 0
DWIDTH 7 0
BBX 8 6 0 0
BITMAP
FE
00
00
00
00
00
ENDCHAR
STARTCHAR colon
ENCODING 58
SWIDTH 2000 0
DWIDTH 2 0
BBX 3 7 0 -1
BITMAP
40
40
00
00
00
C0
00
ENDCHAR
STARTCHAR slash
ENCODING 47
SWIDTH 6000 0
DWIDTH 6 0
BBX 7 14 -1 -1
BITMAP
04
08
08
18
10
30
20
20
60
40
C0
80
80
00
ENDCHAR
STARTCHAR parenleft
ENCODING 40
SWIDTH 4000 0
DWIDTH 4 0
BBX 5 15 0 -2
BITMAP
10
30
60
40
40
40
40
40
40
40
40
40
60
30
00
ENDCHAR
STARTCHAR parenright
ENCODING 41
SWIDTH 4000 0
DWIDTH 4 0
BBX 5 15 -1 -2
BITMAP
C0
E0
20
20
20
20
20
20
20
20
20
20
60
C0
00
ENDCHAR
STARTCHAR percent
ENCODING 37
SWIDTH 10000 0
DWIDTH 10 0
BBX 10 13 0 -1
BITMAP
2080
7980
4B00
5A00
5600
7400
0C00
0B80
1AC0
3640
22C0
4180
0000
ENDCHAR
ENDFONT